<?xml version="1.0" encoding="UTF-8"?>
<svg viewBox="0 0 900 600" width="100%" height="auto" xmlns="http://www.w3.org/2000/svg">
  <rect x="0" y="0" width="900" height="600" fill="#fff" stroke="#bbb" stroke-width="3" rx="18"/>
  <defs>
    <style>
      .component { fill: #e3f2fd; stroke: #1976d2; stroke-width: 1.5; rx: 8; }
      .user { fill: #e8f5e8; stroke: #388e3c; stroke-width: 1.5; rx: 8; }
      .queue { fill: #fff3e0; stroke: #f57c00; stroke-width: 1.5; rx: 8; }
      .db { fill: #f3e5f5; stroke: #7b1fa2; stroke-width: 1.5; rx: 8; }
      .text { font-family: Arial, sans-serif; font-size: 14px; fill: #444; }
      .title { font-family: Arial, sans-serif; font-size: 22px; font-weight: bold; fill: #444; }
      .arrow { stroke: #555; stroke-width: 2; marker-end: url(#arrowhead); fill: none; }
      .step { font-family: Arial, sans-serif; font-size: 12px; fill: #666; }
      .status-box { fill: #f8f9fa; stroke: #ddd; stroke-width: 1; rx: 8; }
      .sent-icon { fill: #4caf50; }
      .delivered-icon { fill: #ff9800; }
      .read-icon { fill: #2196f3; }
    </style>
    <marker id="arrowhead" markerWidth="10" markerHeight="7" refX="9" refY="3.5" orient="auto">
      <polygon points="0 0, 10 3.5, 0 7" fill="#555" />
    </marker>
  </defs>
  <text x="450" y="40" text-anchor="middle" class="title">Message Flow in Real-time Chat System</text>

  <!-- Components -->
  <g id="user_a">
    <rect x="50" y="275" width="120" height="50" class="user"/>
    <text x="110" y="305" text-anchor="middle" class="text">User A (Sender)</text>
  </g>
  <g id="user_b">
    <rect x="730" y="275" width="120" height="50" class="user"/>
    <text x="790" y="305" text-anchor="middle" class="text">User B (Recipient)</text>
  </g>
  <g id="api_gateway">
    <rect x="250" y="100" width="150" height="40" class="component"/>
    <text x="325" y="125" text-anchor="middle" class="text">API Gateway</text>
  </g>
  <g id="chat_service">
    <rect x="250" y="350" width="150" height="40" class="component"/>
    <text x="325" y="375" text-anchor="middle" class="text">Chat Service</text>
  </g>
  <g id="presence_service">
    <rect x="425" y="100" width="150" height="40" class="component"/>
    <text x="500" y="125" text-anchor="middle" class="text">Presence Service</text>
  </g>
  <g id="message_queue">
    <rect x="425" y="200" width="150" height="40" class="queue"/>
    <text x="500" y="225" text-anchor="middle" class="text">Message Queue</text>
  </g>
  <g id="offline_queue">
    <rect x="600" y="200" width="150" height="40" class="queue"/>
    <text x="675" y="225" text-anchor="middle" class="text">Offline Queue</text>
  </g>
  <g id="message_db">
    <rect x="425" y="350" width="150" height="40" class="db"/>
    <text x="500" y="375" text-anchor="middle" class="text">Message DB</text>
  </g>
  <g id="websocket_server">
    <rect x="600" y="350" width="150" height="40" class="component"/>
    <text x="675" y="375" text-anchor="middle" class="text">WebSocket Server</text>
  </g>
  
  <!-- Arrows -->
  <path d="M 170 290 L 250 125" class="arrow"/>
  <text x="215" y="200" class="step">1. Send</text>
  <path d="M 325 140 L 325 350" class="arrow"/>
  <text x="335" y="245" class="step">2. Route</text>
  <path d="M 360 350 C 380 300, 400 250, 425 225" class="arrow"/>
  <text x="380" y="280" class="step">3. Queue</text>
  <path d="M 400 370 L 425 370" class="arrow"/>
  <text x="405" y="365" class="step">4. Persist</text>
  <path d="M 500 200 L 500 140" class="arrow"/>
  <text x="510" y="170" class="step">5. Check Online</text>
  <path d="M 675 350 L 730 305" class="arrow"/>
  <text x="700" y="330" class="step">6a. Online</text>
  <path d="M 575 220 L 600 220" class="arrow"/>
  <text x="580" y="215" class="step">6b. Offline</text>
  <path d="M 575 370 L 600 370" class="arrow"/>
  <path d="M 790 325 L 110 325" class="arrow" stroke-dasharray="5,5"/>
  <text x="450" y="320" class="step">7. Delivery ACK</text>
  
  <!-- Status Indicators -->
  <rect x="50" y="480" width="250" height="80" class="status-box"/>
  <text x="175" y="525" text-anchor="middle" class="text">Sent: <tspan class="sent-icon" font-weight="bold">✓</tspan></text>
  <rect x="325" y="480" width="250" height="80" class="status-box"/>
  <text x="450" y="525" text-anchor="middle" class="text">Delivered: <tspan class="delivered-icon" font-weight="bold">✓✓</tspan></text>
  <rect x="600" y="480" width="250" height="80" class="status-box"/>
  <text x="725" y="525" text-anchor="middle" class="text">Read: <tspan class="read-icon" font-weight="bold">✓✓</tspan> (Blue)</text>
</svg> 