<?xml version="1.0" encoding="UTF-8"?>
<svg viewBox="0 0 900 600" width="100%" height="auto" xmlns="http://www.w3.org/2000/svg">
  <rect x="0" y="0" width="900" height="600" fill="#fff" stroke="#bbb" stroke-width="3" rx="18"/>
  <defs>
    <style>
      .layer { fill: #f8f9fa; stroke: #888; stroke-width: 2; rx: 10; }
      .service { fill: #e3f2fd; stroke: #1976d2; stroke-width: 1; rx: 5; }
      .infra { fill: #f3e5f5; stroke: #7b1fa2; stroke-width: 1; rx: 5; }
      .text { font-family: Arial, sans-serif; font-size: 14px; fill: #444; }
      .title { font-family: Arial, sans-serif; font-size: 22px; font-weight: bold; fill: #444; }
      .layer-title { font-family: Arial, sans-serif; font-size: 18px; font-weight: bold; fill: #444; }
      .arrow { stroke: #555; stroke-width: 2; marker-end: url(#arrowhead); }
      .note { font-family: Arial, sans-serif; font-size: 14px; fill: #666; }
      .note-box { fill: #f8f9fa; stroke: #ddd; stroke-width: 1; rx: 8; }
    </style>
    <marker id="arrowhead" markerWidth="10" markerHeight="7" refX="9" refY="3.5" orient="auto">
      <polygon points="0 0, 10 3.5, 0 7" fill="#555" />
    </marker>
  </defs>
  <text x="450" y="40" text-anchor="middle" class="title">Scaling Strategy</text>

  <rect x="100" y="80" width="700" height="60" class="layer"/>
  <text x="450" y="100" text-anchor="middle" class="layer-title">Entry Point</text>
  <rect x="350" y="115" width="200" height="30" class="service"/>
  <text x="450" y="135" text-anchor="middle" class="text">Load Balancer</text>

  <rect x="100" y="180" width="700" height="100" class="layer"/>
  <text x="450" y="200" text-anchor="middle" class="layer-title">Application Layer (Horizontally Scaled)</text>
  <rect x="120" y="220" width="150" height="30" class="service"/>
  <text x="195" y="240" text-anchor="middle" class="text">API Gateway</text>
  <rect x="290" y="220" width="150" height="30" class="service"/>
  <text x="365" y="240" text-anchor="middle" class="text">Chat Service</text>
  <rect x="460" y="220" width="150" height="30" class="service"/>
  <text x="535" y="240" text-anchor="middle" class="text">Presence Service</text>
  <rect x="630" y="220" width="150" height="30" class="service"/>
  <text x="705" y="240" text-anchor="middle" class="text">Other Services</text>

  <rect x="100" y="320" width="700" height="100" class="layer"/>
  <text x="450" y="340" text-anchor="middle" class="layer-title">Infrastructure Layer (Sharded/Replicated)</text>
  <rect x="120" y="360" width="120" height="30" class="infra"/>
  <text x="180" y="380" text-anchor="middle" class="text">Message DB</text>
  <rect x="260" y="360" width="120" height="30" class="infra"/>
  <text x="320" y="380" text-anchor="middle" class="text">User DB</text>
  <rect x="400" y="360" width="120" height="30" class="infra"/>
  <text x="460" y="380" text-anchor="middle" class="text">Redis Cache</text>
  <rect x="540" y="360" width="120" height="30" class="infra"/>
  <text x="600" y="380" text-anchor="middle" class="text">Message Queue</text>
  <rect x="680" y="360" width="120" height="30" class="infra"/>
  <text x="740" y="380" text-anchor="middle" class="text">CDN</text>

  <line x1="450" y1="145" x2="450" y2="180" class="arrow"/>
  <line x1="195" y1="250" x2="180" y2="360" class="arrow"/>
  <line x1="365" y1="250" x2="320" y2="360" class="arrow"/>
  <line x1="535" y1="250" x2="460" y2="360" class="arrow"/>
  <line x1="705" y1="250" x2="600" y2="360" class="arrow"/>

  <rect x="100" y="450" width="700" height="120" class="note-box"/>
  <text x="120" y="480" class="note">• Application layer can be scaled horizontally by adding more instances.</text>
  <text x="120" y="505" class="note">• Databases and caches can be sharded or replicated for high availability.</text>
  <text x="120" y="530" class="note">• Use CDN for static assets and edge delivery.</text>
  <text x="120" y="555" class="note">• Message queues help decouple services and smooth spikes in load.</text>
</svg> 