<?xml version="1.0" encoding="UTF-8"?>
<svg viewBox="0 0 1000 800" width="100%" height="auto" xmlns="http://www.w3.org/2000/svg">
  <rect x="0" y="0" width="1000" height="800" fill="#fff" stroke="#bbb" stroke-width="3" rx="18"/>
  <defs>
    <style>
      .table { fill: #e3f2fd; stroke: #1976d2; stroke-width: 1.5; rx: 8; }
      .field { fill: #fff; stroke: #1976d2; stroke-width: 1; rx: 4; }
      .pk { font-weight: bold; }
      .text { font-family: Arial, sans-serif; font-size: 14px; fill: #444; }
      .title { font-family: Arial, sans-serif; font-size: 22px; font-weight: bold; fill: #444; }
      .arrow { stroke: #555; stroke-width: 2; marker-end: url(#arrowhead); fill: none; }
      .relationship { font-family: Arial, sans-serif; font-size: 12px; fill: #666; }
    </style>
    <marker id="arrowhead" markerWidth="10" markerHeight="7" refX="9" refY="3.5" orient="auto">
      <polygon points="0 0, 10 3.5, 0 7" fill="#555" />
    </marker>
  </defs>
  <text x="500" y="40" text-anchor="middle" class="title">Chat System Database Schema</text>

  <!-- Tables -->
  <g id="users">
    <rect x="50" y="100" width="200" height="150" class="table"/>
    <text x="150" y="125" text-anchor="middle" class="text pk">users</text>
    <rect x="60" y="140" width="180" height="30" class="field"/>
    <text x="150" y="160" text-anchor="middle" class="text pk">id (PK)</text>
    <rect x="60" y="180" width="180" height="30" class="field"/>
    <text x="150" y="200" text-anchor="middle" class="text">username</text>
    <rect x="60" y="220" width="180" height="30" class="field"/>
    <text x="150" y="240" text-anchor="middle" class="text">last_seen</text>
  </g>

  <g id="conversations">
    <rect x="380" y="100" width="240" height="120" class="table"/>
    <text x="500" y="125" text-anchor="middle" class="text pk">conversations</text>
    <rect x="390" y="140" width="220" height="30" class="field"/>
    <text x="500" y="160" text-anchor="middle" class="text pk">id (PK)</text>
    <rect x="390" y="180" width="220" height="30" class="field"/>
    <text x="500" y="200" text-anchor="middle" class="text">type</text>
  </g>

  <g id="participants">
    <rect x="700" y="100" width="250" height="120" class="table"/>
    <text x="825" y="125" text-anchor="middle" class="text pk">conversation_participants</text>
    <rect x="710" y="140" width="230" height="30" class="field"/>
    <text x="825" y="160" text-anchor="middle" class="text">conversation_id (FK)</text>
    <rect x="710" y="180" width="230" height="30" class="field"/>
    <text x="825" y="200" text-anchor="middle" class="text">user_id (FK)</text>
  </g>

  <g id="messages">
    <rect x="50" y="350" width="200" height="180" class="table"/>
    <text x="150" y="375" text-anchor="middle" class="text pk">messages</text>
    <rect x="60" y="390" width="180" height="30" class="field"/>
    <text x="150" y="410" text-anchor="middle" class="text pk">id (PK)</text>
    <rect x="60" y="430" width="180" height="30" class="field"/>
    <text x="150" y="450" text-anchor="middle" class="text">sender_id (FK)</text>
    <rect x="60" y="470" width="180" height="30" class="field"/>
    <text x="150" y="490" text-anchor="middle" class="text">conversation_id (FK)</text>
    <rect x="60" y="510" width="180" height="30" class="field"/>
    <text x="150" y="530" text-anchor="middle" class="text">content</text>
  </g>

  <g id="message_status">
    <rect x="380" y="350" width="240" height="150" class="table"/>
    <text x="500" y="375" text-anchor="middle" class="text pk">message_status</text>
    <rect x="390" y="390" width="220" height="30" class="field"/>
    <text x="500" y="410" text-anchor="middle" class="text">message_id (FK)</text>
    <rect x="390" y="430" width="220" height="30" class="field"/>
    <text x="500" y="450" text-anchor="middle" class="text">user_id (FK)</text>
    <rect x="390" y="470" width="220" height="30" class="field"/>
    <text x="500" y="490" text-anchor="middle" class="text">status</text>
  </g>
  
  <g id="media">
    <rect x="700" y="350" width="250" height="120" class="table"/>
    <text x="825" y="375" text-anchor="middle" class="text pk">media</text>
    <rect x="710" y="390" width="230" height="30" class="field"/>
    <text x="825" y="410" text-anchor="middle" class="text pk">id (PK)</text>
    <rect x="710" y="430" width="230" height="30" class="field"/>
    <text x="825" y="450" text-anchor="middle" class="text">message_id (FK)</text>
  </g>

  <!-- Relationships -->
  <path d="M 250 175 C 310 175, 310 160, 380 160" class="arrow"/>
  <text x="310" y="155" class="relationship">1:N</text>

  <path d="M 620 160 C 660 160, 660 160, 700 160" class="arrow"/>
  <text x="660" y="155" class="relationship">1:N</text>

  <path d="M 250 200 C 280 200, 340 200, 380 200" class="arrow"/>
  <text x="310" y="215" class="relationship">N:M</text>

  <path d="M 150 250 C 150 320, 150 320, 150 350" class="arrow"/>
  <text x="160" y="300" class="relationship">1:N</text>
  
  <path d="M 250 450 C 310 450, 310 430, 380 430" class="arrow"/>
  <text x="310" y="445" class="relationship">1:N</text>

  <path d="M 250 490 C 310 490, 310 450, 380 450" class="arrow"/>
  <text x="310" y="485" class="relationship">1:N</text>

  <path d="M 250 510 C 280 510, 660 510, 700 410" class="arrow"/>
  <text x="475" y="525" class="relationship">1:N</text>
</svg> 